<svg viewBox="0 0 21.24 21.73" xmlns="http://www.w3.org/2000/svg"><g fill="#0676ae"><path d="m19.37 2.49a1.83 1.83 0 0 1 1.85 1.51 1.23 1.23 0 0 1 0 .19v15.69a1.82 1.82 0 0 1 -1.51 1.77 2.51 2.51 0 0 1 -.61.05h-16.93a2 2 0 0 1 -2.17-2.11c0-1.91 0-3.83 0-5.74 0-3.07 0-6.13 0-9.2a2 2 0 0 1 1.34-2.11 4.26 4.26 0 0 1 .56-.11v2.22a2.28 2.28 0 0 0 2.56 2.56 12.26 12.26 0 0 0 1.36-.08 2.07 2.07 0 0 0 1.74-2.13c0-.84 0-1.69 0-2.57h6.15v2.43a2.17 2.17 0 0 0 2.29 2.34h1.1a2.15 2.15 0 0 0 2.26-2.2c0-.68 0-1.36 0-2zm-8.72 7.51h-7.07c-.82 0-1.08.26-1.08 1.08v7.44c0 .84.26 1.1 1.11 1.1h14c.86 0 1.13-.27 1.13-1.13v-7.3c0-.94-.25-1.19-1.17-1.2z"/><path d="m6.13 2.89v2c0 .63-.27.89-.89.9h-1.14a.74.74 0 0 1 -.8-.79q0-2.13 0-4.26a.74.74 0 0 1 .8-.74h1.23a.72.72 0 0 1 .79.8c.02.7.01 1.4.01 2.09z"/><path d="m17.92 2.92v2s-.27.83-.85.84h-1.14a.73.73 0 0 1 -.82-.76c0-1.41 0-2.81 0-4.22a.72.72 0 0 1 .81-.78h1.18a.72.72 0 0 1 .81.82c.01.71.01 1.4.01 2.1z"/><path d="m10.67 11.49c1.33 0 1.33 0 1.33 1.33s0 1.4-1.41 1.4-1.32 0-1.32-1.34 0-1.39 1.4-1.39z"/><path d="m10.61 18.51c-1.34 0-1.34 0-1.34-1.36s0-1.36 1.34-1.36 1.39 0 1.39 1.41-.11 1.31-1.39 1.31z"/><path d="m5 12.82c0-1.31-.08-1.35 1.35-1.33s1.35 0 1.35 1.34 0 1.37-1.4 1.39-1.3-.16-1.3-1.4z"/><path d="m16.29 12.91c0 1.31 0 1.31-1.34 1.31s-1.37 0-1.37-1.38 0-1.34 1.35-1.35 1.37.03 1.36 1.42z"/><path d="m5 17.14c0-1.24-.19-1.37 1.33-1.35s1.37 0 1.37 1.37 0 1.34-1.34 1.35-1.36.03-1.36-1.37z"/><path d="m16.29 17.17c0 1.37.05 1.34-1.35 1.34s-1.37.07-1.36-1.38 0-1.33 1.36-1.34c1.55-.02 1.34.1 1.35 1.38z"/></g></svg>