<svg viewBox="0 0 19.85 19.83" xmlns="http://www.w3.org/2000/svg"><g fill="#0676ae"><path d="m0 5.86a2.8 2.8 0 0 1 .92-2.17c.46-.41.88-.88 1.33-1.3a1.38 1.38 0 0 1 2.14 0c.79.76 1.61 1.53 2.32 2.32a1.37 1.37 0 0 1 0 2.14c-.44.46-.89.91-1.35 1.34a.48.48 0 0 0 -.11.65 13.63 13.63 0 0 0 5.8 5.77.42.42 0 0 0 .57-.11q.64-.67 1.32-1.32a1.4 1.4 0 0 1 2.23 0c.75.74 1.5 1.48 2.24 2.24a1.41 1.41 0 0 1 0 2.26c-.38.39-.79.76-1.15 1.17a3 3 0 0 1 -2.87.94 12.38 12.38 0 0 1 -4.79-1.93 19.43 19.43 0 0 1 -7.93-9.24 13.31 13.31 0 0 1 -.54-1.73 8.78 8.78 0 0 1 -.13-1.03z"/><path d="m19.85 9.3-1.47.24a10 10 0 0 0 -8.32-8.06l.2-1.48a11.32 11.32 0 0 1 9.59 9.3z"/><path d="m9.85 5.46c.08-.52.14-1 .21-1.47a6.61 6.61 0 0 1 5.73 5.57l-1.43.25a5.42 5.42 0 0 0 -4.51-4.35z"/></g></svg>