<svg viewBox="0 0 34.32 29.98" xmlns="http://www.w3.org/2000/svg"><g fill="#0676ae"><path d="m12.79 0a14 14 0 0 1 9.78 3.78 2 2 0 0 0 1 .43c5.12 1 8.78 3.8 10.31 8.92a10.61 10.61 0 0 1 -1.35 8.95 1.37 1.37 0 0 0 -.15 1.31c.57 1.72 1.1 3.45 1.66 5.18.17.49.22 1-.26 1.26a1.7 1.7 0 0 1 -1.29 0c-1.76-.83-3.47-1.76-5.21-2.6a1.46 1.46 0 0 0 -1-.06c-5.4 1.79-10.25 1-14.52-2.9a1.78 1.78 0 0 0 -.76-.27c-1-.28-2-.55-3-.77a1.71 1.71 0 0 0 -1 .07c-1.69.79-3.37 1.7-5 2.52-.49.26-1 .43-1.46 0a1.15 1.15 0 0 1 -.24-1.36c.57-1.77 1.14-3.55 1.7-5.34a1.13 1.13 0 0 0 -.08-.81c-4.32-6.58-1.02-15.13 6.97-17.66a13.2 13.2 0 0 1 1.88-.45c.76-.11 1.53-.15 2.02-.2zm18.65 27.1c-.44-1.37-.79-2.56-1.2-3.73a1.91 1.91 0 0 1 .28-1.94 9.17 9.17 0 0 0 0-10.75c-3.6-5.15-11.36-6.19-16.47-2.22a9.36 9.36 0 0 0 -.26 15c3.67 3 7.8 3.38 12.16 1.68a1.81 1.81 0 0 1 1.68.05c1.2.62 2.43 1.21 3.81 1.91zm-11.75-23c-.24-.17-.35-.26-.47-.33a11.91 11.91 0 0 0 -13.45.8c-3.85 3.09-4.93 8.19-2.38 12.19a3.44 3.44 0 0 1 .35 3.58c-.09.2-.15.42-.22.63l-.64 2.11c1.24-.63 2.35-1.13 3.4-1.74a2.1 2.1 0 0 1 2.37-.11 3.72 3.72 0 0 0 .89.29c-1.88-3.92-1.9-7.71.33-11.36s5.59-5.45 9.82-6.09z"/><path d="m17.16 17.07a1 1 0 0 1 -1-1 1 1 0 1 1 2 0 1 1 0 0 1 -1 1z"/><path d="m24.17 16a1 1 0 0 1 2 .13 1 1 0 1 1 -2-.13z"/><path d="m21.15 15.07a1 1 0 0 1 1 1 1 1 0 0 1 -1 1 1 1 0 0 1 -1-1 1 1 0 0 1 1-1z"/></g></svg>