<svg viewBox="0 0 22.45 21.23" xmlns="http://www.w3.org/2000/svg"><g fill="#0676ae"><path d="m3.11 16.85h-1.25a1.82 1.82 0 0 1 -1.86-1.85v-13.09a1.85 1.85 0 0 1 1.94-1.91h5.48 12.83a2.05 2.05 0 0 1 2.2 2.21c-.05 4.19 0 8.38 0 12.57a1.86 1.86 0 0 1 -2.05 2.07c-3.61 0-7.22 0-10.82 0a1.27 1.27 0 0 0 -.77.3c-1.32 1.19-2.62 2.41-3.93 3.62-.3.27-.59.59-1.06.38a1.14 1.14 0 0 1 -.68-1.15c0-.93 0-1.86 0-2.79-.01-.09-.02-.21-.03-.36zm11.1-6.16c.21.11.35.17.48.25.85.49 1.69 1 2.55 1.47.5.28.88.06.88-.51 0-2.32 0-4.63 0-6.95 0-.54-.38-.76-.86-.49-.85.47-1.69 1-2.54 1.46l-.51.27v-.56c0-.17 0-.33 0-.49a.86.86 0 0 0 -.91-.93h-8.08a.84.84 0 0 0 -.91.88v6.7a.83.83 0 0 0 .87.87h7.82c.94 0 1.2-.26 1.2-1.18z"/><path d="m8 6.27c.22.1.33.14.43.2l2.74 1.58c.46.28.46.5 0 .77-.93.55-1.86 1.08-2.79 1.61-.42.24-.61.13-.62-.35 0-1.09 0-2.19 0-3.28-.03-.17.12-.34.24-.53z"/></g></svg>